<?xml version="1.0" encoding="UTF-8"?>
<svg id="Camada_1" xmlns="http://www.w3.org/2000/svg" version="1.1" viewBox="0 0 321.34 349.9">
  <!-- Generator: Adobe Illustrator 30.0.0, SVG Export Plug-In . SVG Version: 2.1.1 Build 123)  -->
  <defs>
    <style>
      .st0 {
        fill: #470a2d;
      }
    </style>
  </defs>
  <g>
    <path class="st0" d="M168.01,343.7c.85-.72,1.35-1.78,1.34-2.89-.29-89.44-.21-187.04-.19-276.37,0-2.93-.3-5.91.57-8.93,1.46-1.05,2.68-.98,3.85-.98,36.6,0,73.19,0,109.79,0,7.31,0,12.92,3.2,17.03,9.13,4.97,7.17,5.02,15.64.18,22.78-5.28,7.79-13.28,11.01-22.07,8.89-8.7-2.1-14.55-8.51-15.62-17.23-.27-2.17-.46-4.34-1.31-6.36-1.45-3.41-5.01-5.51-8.54-5.13-5.31.58-8.5,5.19-7.82,11.3,2.45,22.19,19.91,36.65,42.21,34.93,23.54-1.81,40.18-28.17,31.64-50.12-6.5-16.7-20.09-25.74-38.73-25.74-79.13,0-158.25,0-237.38-.04-3.98,0-7.89.4-11.79,1.03C11.29,41.14-3.3,62.13.65,81.84c3.12,15.58,14.69,27.65,30.32,30.47,16.15,2.92,29.15-2.84,38.69-16.12,4.26-5.92,6.21-12.78,6.59-20,.26-5.05-3.24-9.03-7.86-9.56-4.43-.51-8.06,2.36-9.22,7.33-.27,1.15-.43,2.33-.53,3.51-.55,6.56-3.81,11.47-9.14,15.15-8.6,5.95-20.04,4.07-27.71-4.58-6.23-7.03-5.96-18.89.43-26.16,4.48-5.09,9.93-7.38,16.74-7.36,36.2.11,72.4.05,108.6.07,1.34,0,2.79-.3,4.2,1.1.81,2.17.4,4.75.4,7.27.02,82.41.02,164.81.02,247.22,0,8.73,0,21.44,0,30.65,0,1.1.48,2.13,1.31,2.85l7.17,6.21,7.34-6.2Z"/>
    <path class="st0" d="M189.8,322.81V75.89c1.86-1.08,2.91.62,4.14,1.35,10.89,6.43,21.71,12.97,32.59,19.42,11.33,6.71,17.19,16.48,17.13,29.76-.08,15.02-.01,30.04,0,45.06,0,4.11-1.02,7.81-4.75,11.32,3.51,2.23,4.17,5.21,4.23,8.49.02,1.18.44,2.35.44,3.52-.05,25.09.46,50.18-.22,75.27-.07,2.65-1.03,4.33-2.92,6.07l-13.75,12.59.14-32.13c.02-18.58.03-37.15,0-55.73,0-2.14.4-4.34-.76-7.01-6.44.31-12.83,1.88-19.01,2.76-1.56,2.43-1,4.67-1,6.78-.04,32.8-.1,65.61.05,98.41.02,4.3-.94,7.56-4.34,10.34l-11.97,10.67ZM206.41,106.9v68.63c7.03,0,13.23-.7,20.12-1.27,0-19.75.31-38.47.31-58.01-6.99-3.41-12.89-5.81-20.44-9.35Z"/>
    <path class="st0" d="M119.28,312.18c-4.52-4.52-3.83-7.53-3.83-9.67-.02-26.47,0-52.95,0-79.42,0-6.72.03-13.43-.04-20.15-.02-1.93.42-3.96-1.02-6.3-5.97-1.01-12.32-2.08-19.68-3.33-.12,31.75-.27,63.34-.07,95.89-5.9-5.33-10.36-9.64-15.05-13.86-1.5-1.35-1.27-3.07-1.27-5.23,0-3.6.07-7.1.08-10.65.03-41.69-.02-83.37.07-125.06.01-4.72-.64-9.38-.11-14.17.99-8.94,5.29-15.75,12.5-20.55,8.54-5.69,17.35-11.02,26.29-16.07,8.02-4.53,12.56-2.05,14.21,7.04.61,3.32.83,6.65.83,10.02,0,72.11.01,151.09,0,223.2l-12.91-11.69ZM95.13,115.93c0,9.69.63,54.06.63,58.47,6.23,0,12.4.36,19.3.36v-67.9c-7.53,3.26-13.24,6.17-19.93,9.08Z"/>
    <path class="st0" d="M160.08,16.91c-29.47,0-58.94,0-88.41,0-1.78,0-3.58.1-5.33-.12-4.01-.49-7.4-4.22-7.41-7.98-.02-4.39,3.08-8.09,7.39-8.66,1.56-.21,3.16-.12,4.74-.12,59.73,0,119.46,0,179.18-.01,1.38,0,2.78-.07,4.15.05,4.47.38,7.73,3.76,7.89,8.09.16,4.6-3.1,8.25-7.87,8.73-1.18.12-2.37.05-3.56.05-30.26,0-60.52,0-90.78,0v-.02Z"/>
  </g>
  <polygon class="st0" points="88.46 64.54 88.46 84.28 117.73 64.54 88.46 64.54"/>
  <polygon class="st0" points="233.37 64.54 233.37 84.28 204.11 64.54 233.37 64.54"/>
</svg>